<svg width="840" height="840" xmlns="http://www.w3.org/2000/svg"><path d="m616.02 614.82c9.12-10.86 18-21.78 27.3-32.82-20.34-17.58-40.98-34.26-62.16-49.68l-25.86 31.26a672 672 0 0 1 60.72 51.24z" style="stroke-width:6"/><path d="m730.8 646.2-3.18-41.22-34.02 3.54v-164.94h-42v61.74c-19.2-17.64-38.82-34.32-58.86-49.8l-26.04 30.48a660.36 660.36 0 0 1 58.2 52.02q13.32-15.48 26.52-31.08v106.08l-102 10.62 3.3 41.34 98.82-10.38v78h42v-82.5z" style="stroke-width:6"/><path d="m562.68 598.32c-15.36-14.4-30-28.08-45.18-40.2h38.04v-39.72h-38.76v-36.48c15.66-3.24 30-6.54 40.98-9.54-3.9-20.64-7.14-37.56-7.14-37.56-33.84 8.22-82.8 17.58-117.54 22.2 0.96 9.96 2.94 27.36 4.38 38.88 10.8-1.44 25.02-3.78 40.14-6.48v28.98h-42.36v39.6h37.74c-13.14 30.9-45.66 76.92-52.74 85.02 6.78 12.42 14.16 24.84 21.9 37.2a457.14 457.14 0 0 0 35.46-58.86v111.06h39.18v-126.42l20.76 22.02c8.46-9.36 16.62-19.26 25.14-29.7z" style="stroke-width:6"/><path d="m408 483.6v-38.04h-290.52v38.04h118.08c-1.14 4.56-5.52 21.66-8.04 31.02h-80.46v217.92h41.52v-18h149.16v18h41.52v-217.92h-105.96l7.68-31.02zm-219.36 70.8h149.1v41.28h-149.1zm0 121.26v-41.28h149.1v41.28z" style="stroke-width:6"/><path d="m738.6 387a156.78 156.78 0 0 1-54-19.86 108 108 0 0 0 25.32-44.94h24v-28.8h-54.36a140.46 140.46 0 0 0-9.84-21.9c-8.52 1.68-17.46 3.24-27 4.5 1.68 6 3.48 12.96 4.5 17.4h-57.72v28.8h23.22a135.9 135.9 0 0 0 24.54 44.28 196.02 196.02 0 0 1-54 22.32 318.9 318.9 0 0 0 23.1 30 281.04 281.04 0 0 0 54-30 211.08 211.08 0 0 0 54.78 29.52c8.28-10.32 16.44-20.82 23.46-31.32zm-61.2-64.8a100.5 100.5 0 0 1-16.5 24.72 103.02 103.02 0 0 1-15.6-24.72z" style="stroke-width:6"/><path d="m677.1 135.6v-28.32h-33v28.32h-54.6v92.4h33.12v-9.24h21.48v45.24h33v-45.24h23.28v9.24h31.62v-92.4zm-54.48 52.2v-21.24h21.48v21.24zm78 0h-23.28v-21.24h23.28z" style="stroke-width:6"/><polygon transform="scale(6)" points="72.13 18.75 56.38 18.75 56.38 25.25 60.88 25.25 60.88 62 56.38 62 56.38 68.5 72.13 68.5 72.13 62 67.63 62 67.63 46.44 84.38 46.44 84.38 62 79.88 62 79.88 68.5 95.63 68.5 95.63 62 91.13 62 91.13 25.25 95.63 25.25 95.63 18.75 79.88 18.75 79.88 25.25 84.38 25.25 84.38 38.94 67.63 38.94 67.63 25.25 72.13 25.25"/><path d="m326.28 207.72v-100.44h-43.56v18c-12.65254-4.86033-26.0494-7.49911-39.6-7.8-48-1.02-80.82 27.96-88.26 34.44-62.58 54.78-43.68 147.66-42.72 152.28 3.72 17.28 14.34 66.42 59.34 94.56 43.86 27.42 107.88514 21.31844 157.80514-9.82156l-18.57083-36.59082c-41.28361 27.87109-83.282 31.18513-112.71431 14.19238-31.2-19.8-40.5-52.26-43.92-64.08-2.82-9.72-16.62-74.4 21.78-115.56 17.42876-17.8913 40.74562-28.8677 65.64-30.9 13.89373-1.1956 27.88776 0.29136 41.22 4.38v47.64z" style="stroke-width:6"/><rect x="54" y="54" width="732" height="732" style="fill:none;stroke-miterlimit:10;stroke-width:60px;stroke:#000"/></svg>